<svg width="204" height="204" viewBox="0 0 204 204" fill="none" xmlns="http://www.w3.org/2000/svg">
<g clip-path="url(#clip0_72_21)">
<path d="M178.496 152.75C183.19 155.865 184.509 162.233 180.941 166.593C174.64 174.295 167.233 181.047 158.946 186.623C147.834 194.102 135.357 199.318 122.228 201.974C109.099 204.631 95.5755 204.675 82.4295 202.105C69.2836 199.535 56.7725 194.401 45.6108 186.996C34.449 179.59 24.855 170.059 17.3767 158.946C9.8984 147.834 4.68216 135.357 2.02581 122.228C-0.630534 109.099 -0.67496 95.5755 1.89507 82.4295C3.81141 72.6273 7.15338 63.178 11.7994 54.3779C14.4295 49.3963 20.8098 48.1354 25.504 51.2497V51.2497C30.1981 54.364 31.4145 60.6723 28.9098 65.7181C25.6742 72.2362 23.3181 79.1718 21.9161 86.3436C19.86 96.8604 19.8956 107.679 22.0207 118.182C24.1457 128.685 28.3187 138.667 34.3014 147.557C40.284 156.447 47.9592 164.072 56.8886 169.996C65.818 175.921 75.8269 180.028 86.3436 182.084C96.8604 184.14 107.679 184.104 118.182 181.979C128.685 179.854 138.667 175.681 147.557 169.699C153.62 165.619 159.094 160.752 163.842 155.237C167.517 150.968 173.802 149.636 178.496 152.75V152.75Z" fill="url(#paint0_linear_72_21)"/>
<path d="M74.712 114.48C73.432 114.48 72.1627 114.341 70.904 114.064C69.6453 113.787 68.6107 113.403 67.8 112.912V107.952C68.76 108.571 69.8373 109.061 71.032 109.424C72.248 109.765 73.3893 109.936 74.456 109.936C75.9493 109.936 77.0587 109.648 77.784 109.072C78.5093 108.496 78.872 107.707 78.872 106.704C78.872 105.744 78.4987 104.997 77.752 104.464C77.0267 103.931 76.0027 103.664 74.68 103.664C73.9333 103.664 73.144 103.739 72.312 103.888C71.5013 104.016 70.7973 104.208 70.2 104.464L68.024 103.216L68.92 91.632H83.256V96.272H74.392L74.104 99.792C75.0853 99.536 76.1307 99.408 77.24 99.408C79.5653 99.408 81.3787 100.027 82.68 101.264C84.0027 102.48 84.664 104.24 84.664 106.544C84.664 109.04 83.8213 110.992 82.136 112.4C80.4507 113.787 77.976 114.48 74.712 114.48ZM96.5728 114.48C94.5034 114.48 92.6901 114.021 91.1328 113.104C89.5754 112.165 88.3701 110.821 87.5168 109.072C86.6848 107.323 86.2688 105.243 86.2688 102.832C86.2688 100.421 86.6848 98.3413 87.5168 96.592C88.3488 94.8427 89.5328 93.4987 91.0688 92.56C92.6261 91.6213 94.4608 91.152 96.5728 91.152C98.6848 91.152 100.509 91.6213 102.045 92.56C103.602 93.4987 104.797 94.8427 105.629 96.592C106.461 98.3413 106.877 100.421 106.877 102.832C106.877 105.243 106.45 107.323 105.597 109.072C104.765 110.821 103.57 112.165 102.013 113.104C100.455 114.021 98.6421 114.48 96.5728 114.48ZM96.5728 109.168C98.0021 109.168 99.1114 108.613 99.9008 107.504C100.69 106.395 101.085 104.859 101.085 102.896C101.085 100.912 100.69 99.3547 99.9008 98.224C99.1328 97.072 98.0234 96.496 96.5728 96.496C95.1221 96.496 94.0021 97.072 93.2128 98.224C92.4448 99.3547 92.0608 100.912 92.0608 102.896C92.0608 104.859 92.4554 106.395 93.2448 107.504C94.0341 108.613 95.1434 109.168 96.5728 109.168ZM114.344 102.896C113.277 102.896 112.296 102.64 111.4 102.128C110.504 101.595 109.789 100.88 109.256 99.984C108.744 99.088 108.488 98.1067 108.488 97.04C108.488 95.9733 108.744 94.992 109.256 94.096C109.789 93.1787 110.504 92.464 111.4 91.952C112.296 91.4187 113.277 91.152 114.344 91.152C115.41 91.152 116.392 91.4187 117.288 91.952C118.205 92.464 118.92 93.1787 119.432 94.096C119.965 94.992 120.232 95.9733 120.232 97.04C120.232 98.1067 119.965 99.088 119.432 99.984C118.92 100.88 118.205 101.595 117.288 102.128C116.392 102.64 115.41 102.896 114.344 102.896ZM125.319 91.632H131.048L118.664 114H112.936L125.319 91.632ZM114.344 99.44C115.005 99.44 115.56 99.2267 116.008 98.8C116.456 98.352 116.68 97.7973 116.68 97.136C116.68 96.4533 116.456 95.888 116.008 95.44C115.56 94.992 115.005 94.768 114.344 94.768C113.682 94.768 113.128 94.992 112.68 95.44C112.253 95.888 112.04 96.4533 112.04 97.136C112.04 97.7973 112.253 98.352 112.68 98.8C113.128 99.2267 113.682 99.44 114.344 99.44ZM129.576 114.48C128.509 114.48 127.528 114.224 126.632 113.712C125.736 113.179 125.021 112.464 124.488 111.568C123.976 110.672 123.72 109.691 123.72 108.624C123.72 107.557 123.976 106.576 124.488 105.68C125.021 104.763 125.736 104.048 126.632 103.536C127.528 103.003 128.509 102.736 129.576 102.736C130.642 102.736 131.624 103.003 132.52 103.536C133.437 104.048 134.152 104.763 134.664 105.68C135.197 106.576 135.464 107.557 135.464 108.624C135.464 109.691 135.197 110.672 134.664 111.568C134.152 112.464 133.437 113.179 132.52 113.712C131.624 114.224 130.642 114.48 129.576 114.48ZM129.544 111.024C130.205 111.024 130.76 110.811 131.208 110.384C131.656 109.936 131.88 109.381 131.88 108.72C131.88 108.037 131.656 107.472 131.208 107.024C130.76 106.576 130.205 106.352 129.544 106.352C128.882 106.352 128.328 106.576 127.88 107.024C127.453 107.472 127.24 108.037 127.24 108.72C127.24 109.381 127.453 109.936 127.88 110.384C128.328 110.811 128.882 111.024 129.544 111.024Z" fill="white"/>
</g>
<defs>
<linearGradient id="paint0_linear_72_21" x1="1.44652e-07" y1="102" x2="201.144" y2="105.06" gradientUnits="userSpaceOnUse">
<stop stop-color="#A33580"/>
<stop offset="1" stop-color="#6030AE"/>
</linearGradient>
<clipPath id="clip0_72_21">
<rect width="204" height="204" fill="white"/>
</clipPath>
</defs>
</svg>
