<svg width="204" height="204" viewBox="0 0 204 204" fill="none" xmlns="http://www.w3.org/2000/svg">
<g clip-path="url(#clip0_72_25)">
<path d="M178.496 152.75C183.19 155.865 184.509 162.233 180.941 166.593C172.944 176.367 163.181 184.594 152.131 190.83C138.113 198.742 122.421 203.223 106.339 203.908C90.2572 204.592 74.2414 201.461 59.6012 194.77C44.9611 188.079 32.1124 178.019 22.1056 165.41C12.0987 152.802 5.21796 138.005 2.02581 122.228C-1.16634 106.451 -0.579226 90.1423 3.73914 74.6357C8.05751 59.1291 15.9845 44.8647 26.8721 33.0088C35.454 23.6635 45.6832 16.0238 57.0177 10.4544C62.0736 7.9701 67.9766 10.7002 69.9437 15.9789V15.9789C71.9108 21.2576 69.1869 27.0761 64.1947 29.686C55.8505 34.0483 48.3009 39.8342 41.8976 46.807C33.1876 56.2918 26.846 67.7033 23.3913 80.1086C19.9366 92.5138 19.4669 105.561 22.0207 118.182C24.5744 130.804 30.079 142.642 38.0844 152.728C46.0899 162.815 56.3689 170.864 68.081 176.216C79.7931 181.569 92.6058 184.074 105.471 183.526C118.337 182.978 130.89 179.393 142.105 173.064C150.35 168.411 157.699 162.373 163.842 155.237C167.517 150.968 173.802 149.636 178.496 152.75V152.75Z" fill="url(#paint0_linear_72_25)"/>
<path d="M77.144 114.48C75.3307 114.48 73.7093 114.075 72.28 113.264C70.872 112.432 69.7733 111.248 68.984 109.712C68.1947 108.155 67.8 106.331 67.8 104.24C67.8 101.509 68.28 99.1627 69.24 97.2C70.2 95.216 71.5333 93.712 73.24 92.688C74.9467 91.664 76.92 91.152 79.16 91.152C80.6747 91.152 82.0293 91.344 83.224 91.728V96.528C82.2853 96.016 81.08 95.76 79.608 95.76C78.008 95.76 76.7067 96.1973 75.704 97.072C74.7013 97.9253 74.0827 99.1947 73.848 100.88C74.3813 100.325 75.1173 99.888 76.056 99.568C76.9947 99.248 77.9867 99.088 79.032 99.088C80.4613 99.088 81.72 99.3867 82.808 99.984C83.9173 100.56 84.7707 101.403 85.368 102.512C85.9867 103.621 86.296 104.955 86.296 106.512C86.296 108.027 85.944 109.392 85.24 110.608C84.5573 111.803 83.5227 112.752 82.136 113.456C80.7707 114.139 79.1067 114.48 77.144 114.48ZM77.24 110.096C78.1787 110.096 78.968 109.776 79.608 109.136C80.248 108.496 80.568 107.717 80.568 106.8C80.568 105.861 80.248 105.072 79.608 104.432C78.968 103.792 78.1787 103.472 77.24 103.472C76.3227 103.472 75.544 103.803 74.904 104.464C74.264 105.104 73.944 105.883 73.944 106.8C73.944 107.717 74.264 108.496 74.904 109.136C75.544 109.776 76.3227 110.096 77.24 110.096ZM98.1978 114.48C96.1284 114.48 94.3151 114.021 92.7578 113.104C91.2004 112.165 89.9951 110.821 89.1418 109.072C88.3098 107.323 87.8938 105.243 87.8938 102.832C87.8938 100.421 88.3098 98.3413 89.1418 96.592C89.9738 94.8427 91.1578 93.4987 92.6938 92.56C94.2511 91.6213 96.0858 91.152 98.1978 91.152C100.31 91.152 102.134 91.6213 103.67 92.56C105.227 93.4987 106.422 94.8427 107.254 96.592C108.086 98.3413 108.502 100.421 108.502 102.832C108.502 105.243 108.075 107.323 107.222 109.072C106.39 110.821 105.195 112.165 103.638 113.104C102.08 114.021 100.267 114.48 98.1978 114.48ZM98.1978 109.168C99.6271 109.168 100.736 108.613 101.526 107.504C102.315 106.395 102.71 104.859 102.71 102.896C102.71 100.912 102.315 99.3547 101.526 98.224C100.758 97.072 99.6484 96.496 98.1978 96.496C96.7471 96.496 95.6271 97.072 94.8378 98.224C94.0698 99.3547 93.6858 100.912 93.6858 102.896C93.6858 104.859 94.0804 106.395 94.8698 107.504C95.6591 108.613 96.7684 109.168 98.1978 109.168ZM115.969 102.896C114.902 102.896 113.921 102.64 113.025 102.128C112.129 101.595 111.414 100.88 110.881 99.984C110.369 99.088 110.113 98.1067 110.113 97.04C110.113 95.9733 110.369 94.992 110.881 94.096C111.414 93.1787 112.129 92.464 113.025 91.952C113.921 91.4187 114.902 91.152 115.969 91.152C117.035 91.152 118.017 91.4187 118.913 91.952C119.83 92.464 120.545 93.1787 121.057 94.096C121.59 94.992 121.857 95.9733 121.857 97.04C121.857 98.1067 121.59 99.088 121.057 99.984C120.545 100.88 119.83 101.595 118.913 102.128C118.017 102.64 117.035 102.896 115.969 102.896ZM126.944 91.632H132.673L120.289 114H114.561L126.944 91.632ZM115.969 99.44C116.63 99.44 117.185 99.2267 117.633 98.8C118.081 98.352 118.305 97.7973 118.305 97.136C118.305 96.4533 118.081 95.888 117.633 95.44C117.185 94.992 116.63 94.768 115.969 94.768C115.307 94.768 114.753 94.992 114.305 95.44C113.878 95.888 113.665 96.4533 113.665 97.136C113.665 97.7973 113.878 98.352 114.305 98.8C114.753 99.2267 115.307 99.44 115.969 99.44ZM131.201 114.48C130.134 114.48 129.153 114.224 128.257 113.712C127.361 113.179 126.646 112.464 126.113 111.568C125.601 110.672 125.345 109.691 125.345 108.624C125.345 107.557 125.601 106.576 126.113 105.68C126.646 104.763 127.361 104.048 128.257 103.536C129.153 103.003 130.134 102.736 131.201 102.736C132.267 102.736 133.249 103.003 134.145 103.536C135.062 104.048 135.777 104.763 136.289 105.68C136.822 106.576 137.089 107.557 137.089 108.624C137.089 109.691 136.822 110.672 136.289 111.568C135.777 112.464 135.062 113.179 134.145 113.712C133.249 114.224 132.267 114.48 131.201 114.48ZM131.169 111.024C131.83 111.024 132.385 110.811 132.833 110.384C133.281 109.936 133.505 109.381 133.505 108.72C133.505 108.037 133.281 107.472 132.833 107.024C132.385 106.576 131.83 106.352 131.169 106.352C130.507 106.352 129.953 106.576 129.505 107.024C129.078 107.472 128.865 108.037 128.865 108.72C128.865 109.381 129.078 109.936 129.505 110.384C129.953 110.811 130.507 111.024 131.169 111.024Z" fill="white"/>
</g>
<defs>
<linearGradient id="paint0_linear_72_25" x1="1.44652e-07" y1="102" x2="201.144" y2="105.06" gradientUnits="userSpaceOnUse">
<stop stop-color="#A33580"/>
<stop offset="1" stop-color="#6030AE"/>
</linearGradient>
<clipPath id="clip0_72_25">
<rect width="204" height="204" fill="white"/>
</clipPath>
</defs>
</svg>
