<svg width="204" height="204" viewBox="0 0 204 204" fill="none" xmlns="http://www.w3.org/2000/svg">
<g clip-path="url(#clip0_72_28)">
<path d="M178.496 152.75C183.19 155.865 184.509 162.233 180.941 166.593C171.244 178.445 158.972 187.996 145.007 194.49C127.95 202.421 109.032 205.481 90.344 203.332C71.6562 201.182 53.9267 193.907 39.1159 182.309C24.3051 170.712 12.9898 155.245 6.42098 137.618C-0.147798 119.991 -1.71416 100.891 1.89507 82.4295C5.5043 63.968 14.1485 46.864 26.872 33.0088C39.5956 19.1535 55.9028 9.08659 73.9907 3.92105C88.7993 -0.307956 104.329 -1.11689 119.418 1.49808C124.968 2.46004 128.139 8.13843 126.628 13.5652V13.5652C125.117 18.992 119.493 22.0982 113.92 21.2753C102.485 19.5868 90.7815 20.3415 79.5926 23.5368C65.1222 27.6693 52.0765 35.7228 41.8976 46.807C31.7188 57.8912 24.8034 71.5744 21.9161 86.3436C19.0287 101.113 20.2818 116.393 25.5368 130.495C30.7918 144.596 39.8441 156.97 51.6927 166.247C63.5414 175.525 77.7249 181.346 92.6752 183.065C107.625 184.785 122.76 182.337 136.406 175.992C146.957 171.086 156.3 163.997 163.842 155.237C167.517 150.968 173.802 149.636 178.496 152.75V152.75Z" fill="url(#paint0_linear_72_28)"/>
<path d="M77.464 96.272H67.48V91.632H83.608V95.408L75.128 114H69.368L77.464 96.272ZM95.1978 114.48C93.1284 114.48 91.3151 114.021 89.7578 113.104C88.2004 112.165 86.9951 110.821 86.1418 109.072C85.3098 107.323 84.8938 105.243 84.8938 102.832C84.8938 100.421 85.3098 98.3413 86.1418 96.592C86.9738 94.8427 88.1578 93.4987 89.6938 92.56C91.2511 91.6213 93.0858 91.152 95.1978 91.152C97.3098 91.152 99.1338 91.6213 100.67 92.56C102.227 93.4987 103.422 94.8427 104.254 96.592C105.086 98.3413 105.502 100.421 105.502 102.832C105.502 105.243 105.075 107.323 104.222 109.072C103.39 110.821 102.195 112.165 100.638 113.104C99.0804 114.021 97.2671 114.48 95.1978 114.48ZM95.1978 109.168C96.6271 109.168 97.7364 108.613 98.5258 107.504C99.3151 106.395 99.7098 104.859 99.7098 102.896C99.7098 100.912 99.3151 99.3547 98.5258 98.224C97.7578 97.072 96.6484 96.496 95.1978 96.496C93.7471 96.496 92.6271 97.072 91.8378 98.224C91.0698 99.3547 90.6858 100.912 90.6858 102.896C90.6858 104.859 91.0804 106.395 91.8698 107.504C92.6591 108.613 93.7684 109.168 95.1978 109.168ZM112.969 102.896C111.902 102.896 110.921 102.64 110.025 102.128C109.129 101.595 108.414 100.88 107.881 99.984C107.369 99.088 107.113 98.1067 107.113 97.04C107.113 95.9733 107.369 94.992 107.881 94.096C108.414 93.1787 109.129 92.464 110.025 91.952C110.921 91.4187 111.902 91.152 112.969 91.152C114.035 91.152 115.017 91.4187 115.913 91.952C116.83 92.464 117.545 93.1787 118.057 94.096C118.59 94.992 118.857 95.9733 118.857 97.04C118.857 98.1067 118.59 99.088 118.057 99.984C117.545 100.88 116.83 101.595 115.913 102.128C115.017 102.64 114.035 102.896 112.969 102.896ZM123.944 91.632H129.673L117.289 114H111.561L123.944 91.632ZM112.969 99.44C113.63 99.44 114.185 99.2267 114.633 98.8C115.081 98.352 115.305 97.7973 115.305 97.136C115.305 96.4533 115.081 95.888 114.633 95.44C114.185 94.992 113.63 94.768 112.969 94.768C112.307 94.768 111.753 94.992 111.305 95.44C110.878 95.888 110.665 96.4533 110.665 97.136C110.665 97.7973 110.878 98.352 111.305 98.8C111.753 99.2267 112.307 99.44 112.969 99.44ZM128.201 114.48C127.134 114.48 126.153 114.224 125.257 113.712C124.361 113.179 123.646 112.464 123.113 111.568C122.601 110.672 122.345 109.691 122.345 108.624C122.345 107.557 122.601 106.576 123.113 105.68C123.646 104.763 124.361 104.048 125.257 103.536C126.153 103.003 127.134 102.736 128.201 102.736C129.267 102.736 130.249 103.003 131.145 103.536C132.062 104.048 132.777 104.763 133.289 105.68C133.822 106.576 134.089 107.557 134.089 108.624C134.089 109.691 133.822 110.672 133.289 111.568C132.777 112.464 132.062 113.179 131.145 113.712C130.249 114.224 129.267 114.48 128.201 114.48ZM128.169 111.024C128.83 111.024 129.385 110.811 129.833 110.384C130.281 109.936 130.505 109.381 130.505 108.72C130.505 108.037 130.281 107.472 129.833 107.024C129.385 106.576 128.83 106.352 128.169 106.352C127.507 106.352 126.953 106.576 126.505 107.024C126.078 107.472 125.865 108.037 125.865 108.72C125.865 109.381 126.078 109.936 126.505 110.384C126.953 110.811 127.507 111.024 128.169 111.024Z" fill="white"/>
</g>
<defs>
<linearGradient id="paint0_linear_72_28" x1="1.44652e-07" y1="102" x2="201.144" y2="105.06" gradientUnits="userSpaceOnUse">
<stop stop-color="#A33580"/>
<stop offset="1" stop-color="#6030AE"/>
</linearGradient>
<clipPath id="clip0_72_28">
<rect width="204" height="204" fill="white"/>
</clipPath>
</defs>
</svg>
