<svg width="204" height="204" viewBox="0 0 204 204" fill="none" xmlns="http://www.w3.org/2000/svg">
<g clip-path="url(#clip0_72_31)">
<path d="M178.496 152.75C183.19 155.865 184.509 162.233 180.941 166.593C169.538 180.529 154.605 191.249 137.618 197.579C117.434 205.101 95.3864 206.04 74.6357 200.261C53.8851 194.482 35.4965 182.282 22.1056 165.41C8.71459 148.538 1.00871 127.86 0.0923434 106.339C-0.824027 84.8185 5.09616 63.5601 17.0044 45.6107C28.9126 27.6614 46.1976 13.9428 66.3819 6.42098C86.5662 -1.10083 108.614 -2.03963 129.364 3.73914C146.828 8.60248 162.618 18.0135 175.165 30.93C179.09 34.9708 178.317 41.4286 173.905 44.9307V44.9307C169.493 48.4327 163.117 47.6399 159.092 43.6985C149.298 34.1076 137.202 27.0982 123.891 23.3913C107.291 18.7683 89.653 19.5193 73.5055 25.5368C57.3581 31.5542 43.5301 42.5292 34.0035 56.8886C24.4769 71.248 19.7408 88.2548 20.4739 105.471C21.207 122.688 27.3717 139.231 38.0844 152.728C48.7972 166.226 63.5081 175.986 80.1086 180.609C96.7091 185.232 114.347 184.481 130.494 178.463C143.442 173.638 154.898 165.626 163.842 155.237C167.517 150.968 173.802 149.636 178.496 152.75V152.75Z" fill="url(#paint0_linear_72_31)"/>
<path d="M76.984 114.48C74.1893 114.48 71.96 113.883 70.296 112.688C68.632 111.493 67.8 109.797 67.8 107.6C67.8 106.341 68.088 105.275 68.664 104.4C69.2613 103.504 70.0507 102.843 71.032 102.416C70.2213 101.861 69.6027 101.179 69.176 100.368C68.7493 99.536 68.536 98.6293 68.536 97.648C68.536 95.6 69.2933 94.0107 70.808 92.88C72.344 91.728 74.4027 91.152 76.984 91.152C79.5653 91.152 81.6133 91.728 83.128 92.88C84.6427 94.0107 85.4 95.6 85.4 97.648C85.4 98.6507 85.1867 99.568 84.76 100.4C84.3333 101.211 83.7253 101.883 82.936 102.416C83.9173 102.821 84.696 103.472 85.272 104.368C85.848 105.264 86.136 106.341 86.136 107.6C86.136 109.797 85.304 111.493 83.64 112.688C81.9973 113.883 79.7787 114.48 76.984 114.48ZM76.984 101.04C77.816 101.04 78.4987 100.784 79.032 100.272C79.5867 99.76 79.864 99.1093 79.864 98.32C79.864 97.5307 79.5867 96.88 79.032 96.368C78.4987 95.8347 77.816 95.568 76.984 95.568C76.152 95.568 75.4693 95.824 74.936 96.336C74.4027 96.848 74.136 97.5093 74.136 98.32C74.136 99.1093 74.4027 99.76 74.936 100.272C75.4693 100.784 76.152 101.04 76.984 101.04ZM76.984 110.096C77.9653 110.096 78.7547 109.819 79.352 109.264C79.9707 108.688 80.28 107.941 80.28 107.024C80.28 106.128 79.9707 105.392 79.352 104.816C78.7333 104.24 77.944 103.952 76.984 103.952C76.024 103.952 75.2347 104.24 74.616 104.816C73.9973 105.392 73.688 106.128 73.688 107.024C73.688 107.941 73.9867 108.688 74.584 109.264C75.2027 109.819 76.0027 110.096 76.984 110.096ZM98.0415 114.48C95.9722 114.48 94.1588 114.021 92.6015 113.104C91.0442 112.165 89.8388 110.821 88.9855 109.072C88.1535 107.323 87.7375 105.243 87.7375 102.832C87.7375 100.421 88.1535 98.3413 88.9855 96.592C89.8175 94.8427 91.0015 93.4987 92.5375 92.56C94.0948 91.6213 95.9295 91.152 98.0415 91.152C100.154 91.152 101.978 91.6213 103.514 92.56C105.071 93.4987 106.266 94.8427 107.098 96.592C107.93 98.3413 108.346 100.421 108.346 102.832C108.346 105.243 107.919 107.323 107.066 109.072C106.234 110.821 105.039 112.165 103.482 113.104C101.924 114.021 100.111 114.48 98.0415 114.48ZM98.0415 109.168C99.4708 109.168 100.58 108.613 101.37 107.504C102.159 106.395 102.554 104.859 102.554 102.896C102.554 100.912 102.159 99.3547 101.37 98.224C100.602 97.072 99.4922 96.496 98.0415 96.496C96.5908 96.496 95.4708 97.072 94.6815 98.224C93.9135 99.3547 93.5295 100.912 93.5295 102.896C93.5295 104.859 93.9242 106.395 94.7135 107.504C95.5028 108.613 96.6122 109.168 98.0415 109.168ZM115.812 102.896C114.746 102.896 113.764 102.64 112.868 102.128C111.972 101.595 111.258 100.88 110.724 99.984C110.212 99.088 109.956 98.1067 109.956 97.04C109.956 95.9733 110.212 94.992 110.724 94.096C111.258 93.1787 111.972 92.464 112.868 91.952C113.764 91.4187 114.746 91.152 115.812 91.152C116.879 91.152 117.86 91.4187 118.756 91.952C119.674 92.464 120.388 93.1787 120.9 94.096C121.434 94.992 121.7 95.9733 121.7 97.04C121.7 98.1067 121.434 99.088 120.9 99.984C120.388 100.88 119.674 101.595 118.756 102.128C117.86 102.64 116.879 102.896 115.812 102.896ZM126.788 91.632H132.516L120.132 114H114.404L126.788 91.632ZM115.812 99.44C116.474 99.44 117.028 99.2267 117.476 98.8C117.924 98.352 118.148 97.7973 118.148 97.136C118.148 96.4533 117.924 95.888 117.476 95.44C117.028 94.992 116.474 94.768 115.812 94.768C115.151 94.768 114.596 94.992 114.148 95.44C113.722 95.888 113.508 96.4533 113.508 97.136C113.508 97.7973 113.722 98.352 114.148 98.8C114.596 99.2267 115.151 99.44 115.812 99.44ZM131.044 114.48C129.978 114.48 128.996 114.224 128.1 113.712C127.204 113.179 126.49 112.464 125.956 111.568C125.444 110.672 125.188 109.691 125.188 108.624C125.188 107.557 125.444 106.576 125.956 105.68C126.49 104.763 127.204 104.048 128.1 103.536C128.996 103.003 129.978 102.736 131.044 102.736C132.111 102.736 133.092 103.003 133.988 103.536C134.906 104.048 135.62 104.763 136.132 105.68C136.666 106.576 136.932 107.557 136.932 108.624C136.932 109.691 136.666 110.672 136.132 111.568C135.62 112.464 134.906 113.179 133.988 113.712C133.092 114.224 132.111 114.48 131.044 114.48ZM131.012 111.024C131.674 111.024 132.228 110.811 132.676 110.384C133.124 109.936 133.348 109.381 133.348 108.72C133.348 108.037 133.124 107.472 132.676 107.024C132.228 106.576 131.674 106.352 131.012 106.352C130.351 106.352 129.796 106.576 129.348 107.024C128.922 107.472 128.708 108.037 128.708 108.72C128.708 109.381 128.922 109.936 129.348 110.384C129.796 110.811 130.351 111.024 131.012 111.024Z" fill="white"/>
</g>
<defs>
<linearGradient id="paint0_linear_72_31" x1="1.44652e-07" y1="102" x2="201.144" y2="105.06" gradientUnits="userSpaceOnUse">
<stop stop-color="#A33580"/>
<stop offset="1" stop-color="#6030AE"/>
</linearGradient>
<clipPath id="clip0_72_31">
<rect width="204" height="204" fill="white"/>
</clipPath>
</defs>
</svg>
