<svg width="204" height="204" viewBox="0 0 204 204" fill="none" xmlns="http://www.w3.org/2000/svg">
<g clip-path="url(#clip0_72_34)">
<path d="M178.496 152.75C183.19 155.865 184.509 162.234 180.941 166.594C167.826 182.623 150.079 194.347 130.009 200.079C106.656 206.748 81.6902 204.866 59.6012 194.77C37.5123 184.675 19.7504 167.029 9.51018 145.007C-0.730005 122.985 -2.77638 98.032 3.73914 74.6357C10.2547 51.2395 24.9045 30.9359 45.0535 17.3767C65.2026 3.81759 89.5286 -2.10715 113.656 0.668178C137.783 3.4435 160.129 14.7367 176.673 32.5166C190.891 47.797 200.023 67.0066 202.965 87.5079C203.766 93.0841 199.345 97.855 193.717 98.0946V98.0946C188.089 98.3343 183.397 93.9453 182.457 88.3909C179.812 72.7482 172.646 58.1355 161.738 46.4133C148.503 32.1894 130.627 23.1548 111.325 20.9345C92.0228 18.7143 72.5621 23.4541 56.4428 34.3014C40.3236 45.1487 28.6037 61.3916 23.3913 80.1086C18.1789 98.8256 19.816 118.788 28.0081 136.406C36.2003 154.024 50.4099 168.14 68.081 176.216C85.7521 184.293 105.725 185.798 124.407 180.463C139.804 176.066 153.491 167.261 163.842 155.237C167.517 150.968 173.802 149.636 178.496 152.75V152.75Z" fill="url(#paint0_linear_72_34)"/>
<path d="M74.936 114.48C73.3573 114.48 72.0027 114.299 70.872 113.936V109.136C71.8533 109.648 73.0587 109.904 74.488 109.904C76.1093 109.904 77.432 109.477 78.456 108.624C79.5013 107.771 80.1307 106.501 80.344 104.816C79.832 105.349 79.128 105.776 78.232 106.096C77.336 106.395 76.3653 106.544 75.32 106.544C73.848 106.544 72.5467 106.245 71.416 105.648C70.2853 105.051 69.4 104.187 68.76 103.056C68.12 101.925 67.8 100.581 67.8 99.024C67.8 97.5093 68.1413 96.1653 68.824 94.992C69.528 93.7973 70.5627 92.8587 71.928 92.176C73.3147 91.4933 74.9893 91.152 76.952 91.152C79.9173 91.152 82.2107 92.0693 83.832 93.904C85.4747 95.7173 86.296 98.224 86.296 101.424C86.296 104.197 85.8053 106.565 84.824 108.528C83.864 110.491 82.5307 111.973 80.824 112.976C79.1173 113.979 77.1547 114.48 74.936 114.48ZM76.952 102.192C77.8907 102.192 78.68 101.872 79.32 101.232C79.96 100.592 80.28 99.8133 80.28 98.896C80.28 97.9573 79.96 97.168 79.32 96.528C78.68 95.888 77.8907 95.568 76.952 95.568C76.0347 95.568 75.256 95.8987 74.616 96.56C73.976 97.2 73.656 97.9787 73.656 98.896C73.656 99.8133 73.976 100.592 74.616 101.232C75.256 101.872 76.0347 102.192 76.952 102.192ZM98.1978 114.48C96.1284 114.48 94.3151 114.021 92.7578 113.104C91.2004 112.165 89.9951 110.821 89.1418 109.072C88.3098 107.323 87.8938 105.243 87.8938 102.832C87.8938 100.421 88.3098 98.3413 89.1418 96.592C89.9738 94.8427 91.1578 93.4987 92.6938 92.56C94.2511 91.6213 96.0858 91.152 98.1978 91.152C100.31 91.152 102.134 91.6213 103.67 92.56C105.227 93.4987 106.422 94.8427 107.254 96.592C108.086 98.3413 108.502 100.421 108.502 102.832C108.502 105.243 108.075 107.323 107.222 109.072C106.39 110.821 105.195 112.165 103.638 113.104C102.08 114.021 100.267 114.48 98.1978 114.48ZM98.1978 109.168C99.6271 109.168 100.736 108.613 101.526 107.504C102.315 106.395 102.71 104.859 102.71 102.896C102.71 100.912 102.315 99.3547 101.526 98.224C100.758 97.072 99.6484 96.496 98.1978 96.496C96.7471 96.496 95.6271 97.072 94.8378 98.224C94.0698 99.3547 93.6858 100.912 93.6858 102.896C93.6858 104.859 94.0804 106.395 94.8698 107.504C95.6591 108.613 96.7684 109.168 98.1978 109.168ZM115.969 102.896C114.902 102.896 113.921 102.64 113.025 102.128C112.129 101.595 111.414 100.88 110.881 99.984C110.369 99.088 110.113 98.1067 110.113 97.04C110.113 95.9733 110.369 94.992 110.881 94.096C111.414 93.1787 112.129 92.464 113.025 91.952C113.921 91.4187 114.902 91.152 115.969 91.152C117.035 91.152 118.017 91.4187 118.913 91.952C119.83 92.464 120.545 93.1787 121.057 94.096C121.59 94.992 121.857 95.9733 121.857 97.04C121.857 98.1067 121.59 99.088 121.057 99.984C120.545 100.88 119.83 101.595 118.913 102.128C118.017 102.64 117.035 102.896 115.969 102.896ZM126.944 91.632H132.673L120.289 114H114.561L126.944 91.632ZM115.969 99.44C116.63 99.44 117.185 99.2267 117.633 98.8C118.081 98.352 118.305 97.7973 118.305 97.136C118.305 96.4533 118.081 95.888 117.633 95.44C117.185 94.992 116.63 94.768 115.969 94.768C115.307 94.768 114.753 94.992 114.305 95.44C113.878 95.888 113.665 96.4533 113.665 97.136C113.665 97.7973 113.878 98.352 114.305 98.8C114.753 99.2267 115.307 99.44 115.969 99.44ZM131.201 114.48C130.134 114.48 129.153 114.224 128.257 113.712C127.361 113.179 126.646 112.464 126.113 111.568C125.601 110.672 125.345 109.691 125.345 108.624C125.345 107.557 125.601 106.576 126.113 105.68C126.646 104.763 127.361 104.048 128.257 103.536C129.153 103.003 130.134 102.736 131.201 102.736C132.267 102.736 133.249 103.003 134.145 103.536C135.062 104.048 135.777 104.763 136.289 105.68C136.822 106.576 137.089 107.557 137.089 108.624C137.089 109.691 136.822 110.672 136.289 111.568C135.777 112.464 135.062 113.179 134.145 113.712C133.249 114.224 132.267 114.48 131.201 114.48ZM131.169 111.024C131.83 111.024 132.385 110.811 132.833 110.384C133.281 109.936 133.505 109.381 133.505 108.72C133.505 108.037 133.281 107.472 132.833 107.024C132.385 106.576 131.83 106.352 131.169 106.352C130.507 106.352 129.953 106.576 129.505 107.024C129.078 107.472 128.865 108.037 128.865 108.72C128.865 109.381 129.078 109.936 129.505 110.384C129.953 110.811 130.507 111.024 131.169 111.024Z" fill="white"/>
</g>
<defs>
<linearGradient id="paint0_linear_72_34" x1="1.44652e-07" y1="102" x2="201.144" y2="105.06" gradientUnits="userSpaceOnUse">
<stop stop-color="#A33580"/>
<stop offset="1" stop-color="#6030AE"/>
</linearGradient>
<clipPath id="clip0_72_34">
<rect width="204" height="204" fill="white"/>
</clipPath>
</defs>
</svg>
